name rise49.5252peak65.1548fall88.8305.mot
datacolumns 19
datarows 35
range 20.09491400000000 20.15158800000000
endheader
time	ground_force1_vx	ground_force1_vy	ground_force1_vz	ground_force1_px	ground_force1_py	ground_force1_pz	ground_force2_vx	ground_force2_vy	ground_force2_vz	ground_force2_px	ground_force2_py	ground_force2_pz	ground_torque1_x	ground_torque1_y	ground_torque1_z	ground_torque2_x	ground_torque2_y	ground_torque2_z	
20.09491400000000	-10.42512600000000	40.81718600000000	-9.96490900000000	0.33383800000000	0.00000000000000	0.10058200000000	-51.86493300000000	787.85203100000001	-49.83640600000000	0.15064400000000	0.00000000000000	-0.07846200000000	0.00000000000000	-6.69421500000000	0.00000000000000	0.00000000000000	-20.80224600000000	0.00000000000000	
20.09658200000000	-11.46956600000000	47.76921800000000	-11.20537200000000	0.33957200000000	0.00000000000000	0.10152800000000	-52.67270700000000	785.59709999999995	-49.49978900000000	0.14977000000000	0.00000000000000	-0.07840100000000	0.00000000000000	-7.61153300000000	0.00000000000000	0.00000000000000	-20.75798400000000	0.00000000000000	
20.09826300000000	-12.32834100000000	54.79022300000000	-12.33229100000000	0.34485600000000	0.00000000000000	0.10238500000000	-53.49517400000000	783.26178800000002	-49.15409700000000	0.14890500000000	0.00000000000000	-0.07833800000000	0.00000000000000	-8.46895800000000	0.00000000000000	0.00000000000000	-20.71655200000000	0.00000000000000	
20.09992200000000	-12.97391900000000	61.78837400000000	-13.31921500000000	0.34975200000000	0.00000000000000	0.10316800000000	-54.33175300000000	780.84330100000000	-48.79919700000000	0.14804900000000	0.00000000000000	-0.07827300000000	0.00000000000000	-9.24700100000000	0.00000000000000	0.00000000000000	-20.67787900000000	0.00000000000000	
20.10158200000000	-13.39011900000000	68.69474599999999	-14.14857300000000	0.35431000000000	0.00000000000000	0.10388700000000	-55.18177400000000	778.33869400000003	-48.43494300000000	0.14720200000000	0.00000000000000	-0.07820600000000	0.00000000000000	-9.93193300000000	0.00000000000000	0.00000000000000	-20.64187300000000	0.00000000000000	
20.10325500000000	-13.57195000000000	75.46537400000000	-14.81178800000000	0.35857200000000	0.00000000000000	0.10455200000000	-56.04447700000000	775.74487399999998	-48.06117500000000	0.14636600000000	0.00000000000000	-0.07813800000000	0.00000000000000	-10.51604500000000	0.00000000000000	0.00000000000000	-20.60841900000000	0.00000000000000	
20.10492000000000	-13.52456400000000	82.08092200000000	-15.30864100000000	0.36257100000000	0.00000000000000	0.10516900000000	-56.91901000000000	773.05861100000004	-47.67772300000000	0.14554000000000	0.00000000000000	-0.07806700000000	0.00000000000000	-10.99736100000000	0.00000000000000	0.00000000000000	-20.57737900000000	0.00000000000000	
20.10658400000000	-13.26155300000000	88.54437700000000	-15.64606800000000	0.36633400000000	0.00000000000000	0.10574500000000	-57.80443100000000	770.27654600000005	-47.28440700000000	0.14472500000000	0.00000000000000	-0.07799400000000	0.00000000000000	-11.37893400000000	0.00000000000000	0.00000000000000	-20.54859600000000	0.00000000000000	
20.10825700000000	-12.80284900000000	94.87729299999999	-15.83656300000000	0.36988700000000	0.00000000000000	0.10628500000000	-58.69970300000000	767.39519900000005	-46.88104000000000	0.14392200000000	0.00000000000000	-0.07791900000000	0.00000000000000	-11.66783900000000	0.00000000000000	0.00000000000000	-20.52189100000000	0.00000000000000	
20.10991600000000	-12.17246800000000	101.11517300000000	-15.89642100000000	0.37324700000000	0.00000000000000	0.10679300000000	-59.60369300000000	764.41098499999998	-46.46742900000000	0.14313100000000	0.00000000000000	-0.07784200000000	0.00000000000000	-11.87401500000000	0.00000000000000	0.00000000000000	-20.49706100000000	0.00000000000000	
20.11158900000000	-11.39630400000000	107.30249000000001	-15.84396100000000	0.37643300000000	0.00000000000000	0.10727200000000	-60.51517900000000	761.32021999999995	-46.04337500000000	0.14235300000000	0.00000000000000	-0.07776300000000	0.00000000000000	-12.00905900000000	0.00000000000000	0.00000000000000	-20.47388500000000	0.00000000000000	
20.11325900000000	-10.50015800000000	113.48784100000000	-15.69790500000000	0.37945800000000	0.00000000000000	0.10772700000000	-61.43284000000000	758.11913500000003	-45.60867800000000	0.14158800000000	0.00000000000000	-0.07768200000000	0.00000000000000	-12.08509900000000	0.00000000000000	0.00000000000000	-20.45212100000000	0.00000000000000	
20.11492000000000	-9.50809800000000	119.71958700000000	-15.47599600000000	0.38233500000000	0.00000000000000	0.10815900000000	-62.35526700000000	754.80389100000002	-45.16313800000000	0.14083700000000	0.00000000000000	-0.07759800000000	0.00000000000000	-12.11381000000000	0.00000000000000	0.00000000000000	-20.43150700000000	0.00000000000000	
20.11658600000000	-8.44124500000000	126.04222700000000	-15.19393400000000	0.38507400000000	0.00000000000000	0.10857000000000	-63.28095500000000	751.37058900000000	-44.70655700000000	0.14009900000000	0.00000000000000	-0.07751200000000	0.00000000000000	-12.10563400000000	0.00000000000000	0.00000000000000	-20.41176100000000	0.00000000000000	
20.11826400000000	-7.31698000000000	132.49368400000000	-14.86465000000000	0.38768500000000	0.00000000000000	0.10896400000000	-64.20831099999999	747.81528900000001	-44.23874100000000	0.13937600000000	0.00000000000000	-0.07742300000000	0.00000000000000	-12.06922800000000	0.00000000000000	0.00000000000000	-20.39258300000000	0.00000000000000	
20.11992200000000	-6.14858100000000	139.10352100000000	-14.49792200000000	0.39017500000000	0.00000000000000	0.10934000000000	-65.13565100000000	744.13401999999996	-43.75950400000000	0.13866600000000	0.00000000000000	-0.07733300000000	0.00000000000000	-12.01114700000000	0.00000000000000	0.00000000000000	-20.37365500000000	0.00000000000000	
20.12159000000000	-4.94522600000000	145.89206999999999	-14.10029000000000	0.39255100000000	0.00000000000000	0.10970200000000	-66.06120700000000	740.32280200000002	-43.26866700000000	0.13797200000000	0.00000000000000	-0.07723900000000	0.00000000000000	-11.93573900000000	0.00000000000000	0.00000000000000	-20.35464300000000	0.00000000000000	
20.12325400000000	-3.71229800000000	152.87037599999999	-13.67523600000000	0.39482000000000	0.00000000000000	0.11005000000000	-66.98312400000000	736.37765700000000	-42.76606300000000	0.13729200000000	0.00000000000000	-0.07714300000000	0.00000000000000	-11.84522800000000	0.00000000000000	0.00000000000000	-20.33519700000000	0.00000000000000	
20.12491900000000	-2.45191900000000	160.04080099999999	-13.22355500000000	0.39698700000000	0.00000000000000	0.11038500000000	-67.89946900000000	732.29463099999998	-42.25154000000000	0.13662600000000	0.00000000000000	-0.07704500000000	0.00000000000000	-11.73994700000000	0.00000000000000	0.00000000000000	-20.31495200000000	0.00000000000000	
20.12658800000000	-1.16362600000000	167.39812900000001	-12.74386500000000	0.39905700000000	0.00000000000000	0.11070800000000	-68.80823100000001	728.06981199999996	-41.72496100000000	0.13597600000000	0.00000000000000	-0.07694300000000	0.00000000000000	-11.61866500000000	0.00000000000000	0.00000000000000	-20.29352800000000	0.00000000000000	
20.12826300000000	0.15488600000000	174.93099500000000	-12.23318000000000	0.40103300000000	0.00000000000000	0.11102100000000	-69.70732599999999	723.69934599999999	-41.18620600000000	0.13534100000000	0.00000000000000	-0.07684000000000	0.00000000000000	-11.47898500000000	0.00000000000000	0.00000000000000	-20.27053500000000	0.00000000000000	
20.12992100000000	1.50702000000000	182.62347199999999	-11.68750900000000	0.40292000000000	0.00000000000000	0.11132400000000	-70.59460100000000	719.17946199999994	-40.63517800000000	0.13472000000000	0.00000000000000	-0.07673300000000	0.00000000000000	-11.31775200000000	0.00000000000000	0.00000000000000	-20.24557000000000	0.00000000000000	
20.13158100000000	2.89659400000000	190.45666499999999	-11.10241200000000	0.40472000000000	0.00000000000000	0.11161700000000	-71.46783800000000	714.50649199999998	-40.07180000000000	0.13411500000000	0.00000000000000	-0.07662400000000	0.00000000000000	-11.13144900000000	0.00000000000000	0.00000000000000	-20.21822200000000	0.00000000000000	
20.13326000000000	4.32724900000000	198.41020700000001	-10.47350100000000	0.40643700000000	0.00000000000000	0.11190100000000	-72.32476300000000	709.67688899999996	-39.49602100000000	0.13352500000000	0.00000000000000	-0.07651200000000	0.00000000000000	-10.91655300000000	0.00000000000000	0.00000000000000	-20.18807000000000	0.00000000000000	
20.13491700000000	5.80198400000000	206.46354600000001	-9.79683700000000	0.40807300000000	0.00000000000000	0.11217700000000	-73.16304700000001	704.68725400000005	-38.90781600000000	0.13294900000000	0.00000000000000	-0.07639700000000	0.00000000000000	-10.66982900000000	0.00000000000000	0.00000000000000	-20.15468700000000	0.00000000000000	
20.13658600000000	7.32281700000000	214.59699300000000	-9.06923400000000	0.40963000000000	0.00000000000000	0.11244500000000	-73.98031200000000	699.53435500000001	-38.30718800000000	0.13238800000000	0.00000000000000	-0.07627900000000	0.00000000000000	-10.38855500000000	0.00000000000000	0.00000000000000	-20.11764000000000	0.00000000000000	
20.13825800000000	8.89059100000000	222.79248100000001	-8.28845500000000	0.41111000000000	0.00000000000000	0.11270600000000	-74.77414300000000	694.21515099999999	-37.69416800000000	0.13184200000000	0.00000000000000	-0.07615800000000	0.00000000000000	-10.07067100000000	0.00000000000000	0.00000000000000	-20.07649200000000	0.00000000000000	
20.13992300000000	10.50488700000000	231.03405500000000	-7.45330600000000	0.41251500000000	0.00000000000000	0.11296000000000	-75.54208700000000	688.72681299999999	-37.06882100000000	0.13131000000000	0.00000000000000	-0.07603500000000	0.00000000000000	-9.71485900000000	0.00000000000000	0.00000000000000	-20.03080500000000	0.00000000000000	
20.14158500000000	12.16405400000000	239.30809500000001	-6.56364700000000	0.41384700000000	0.00000000000000	0.11320700000000	-76.28166400000001	683.06674599999997	-36.43124200000000	0.13079200000000	0.00000000000000	-0.07590800000000	0.00000000000000	-9.32055800000000	0.00000000000000	0.00000000000000	-19.98013700000000	0.00000000000000	
20.14327100000000	13.86531700000000	247.60332500000001	-5.62032900000000	0.41510700000000	0.00000000000000	0.11344700000000	-76.99037500000000	677.23260800000003	-35.78156100000000	0.13028900000000	0.00000000000000	-0.07577900000000	0.00000000000000	-8.88793200000000	0.00000000000000	0.00000000000000	-19.92404900000000	0.00000000000000	
20.14491700000000	15.60494200000000	255.91064100000000	-4.62507800000000	0.41629500000000	0.00000000000000	0.11368200000000	-77.66570500000000	671.22232699999995	-35.11994200000000	0.12979900000000	0.00000000000000	-0.07564600000000	0.00000000000000	-8.41779000000000	0.00000000000000	0.00000000000000	-19.86210600000000	0.00000000000000	
20.14658200000000	17.37843800000000	264.22281600000002	-3.58035100000000	0.41741400000000	0.00000000000000	0.11391000000000	-78.30513700000000	665.03412100000003	-34.44658600000000	0.12932200000000	0.00000000000000	-0.07551000000000	0.00000000000000	-7.91149000000000	0.00000000000000	0.00000000000000	-19.79387400000000	0.00000000000000	
20.14825700000000	19.18077500000000	272.53413000000000	-2.48916600000000	0.41846400000000	0.00000000000000	0.11413300000000	-78.90615400000000	658.66650900000002	-33.76173200000000	0.12885900000000	0.00000000000000	-0.07537100000000	0.00000000000000	-7.37081800000000	0.00000000000000	0.00000000000000	-19.71892700000000	0.00000000000000	
20.14991400000000	21.00659600000000	280.83996300000001	-1.35494000000000	0.41944500000000	0.00000000000000	0.11435000000000	-79.46625299999999	652.11832500000003	-33.06565600000000	0.12840800000000	0.00000000000000	-0.07522900000000	0.00000000000000	-6.79787900000000	0.00000000000000	0.00000000000000	-19.63684900000000	0.00000000000000	
20.15158800000000	22.85040800000000	289.13640099999998	-0.18133100000000	0.42035900000000	0.00000000000000	0.11456100000000	-79.98295100000000	645.38872400000002	-32.35867600000000	0.12796900000000	0.00000000000000	-0.07508400000000	0.00000000000000	-6.19497600000000	0.00000000000000	0.00000000000000	-19.54723000000000	0.00000000000000	
